<?xml version="1.0" encoding="UTF-8"?><svg id="Layer_2" xmlns="http://www.w3.org/2000/svg" viewBox="0 0 196.6 99.64"><defs><style>.cls-1{fill:none;}.cls-1,.cls-2,.cls-3,.cls-4{stroke-width:0px;}.cls-2{fill:#66348d;}.cls-3{fill:#fff;}.cls-4{fill:#fffdfd;}</style></defs><g id="Layer_1-2"><polygon class="cls-2" points="98.89 0 115.08 32.8 151.28 38.06 125.08 63.59 131.27 99.64 98.89 82.62 66.52 99.64 72.7 63.59 46.51 38.06 82.7 32.8 98.89 0"/><path class="cls-3" d="m23.62,45.14c-2.26.52-4.53,1.07-6.79,1.64-.2,1.09-.38,2.18-.56,3.27-.44.11-.89.23-1.33.35.68-4.09,1.49-8.18,2.41-12.27.44-.11.88-.21,1.31-.32,2.9,3.17,5.75,6.37,8.55,9.61-.45.1-.89.2-1.34.3-.74-.86-1.49-1.72-2.24-2.58Zm-.73-.82c-1.51-1.72-3.04-3.44-4.58-5.15-.47,2.19-.9,4.38-1.3,6.57,1.96-.49,3.92-.97,5.88-1.42Z"/><path class="cls-3" d="m37.38,45.31c-1.17-1-2.36-2-3.56-2.99-.31.09-.63.17-.96.24-1.09.22-2.18.45-3.27.68.29,1.16.57,2.31.86,3.47-.42.09-.85.18-1.27.27-.94-3.64-1.84-7.29-2.72-10.94,1.56-.34,3.13-.66,4.69-.97,1.6-.32,2.92-.23,3.96.27,1.04.5,1.68,1.34,1.92,2.51.18.86.09,1.63-.27,2.31-.36.68-.95,1.24-1.78,1.68,1.27,1.06,2.53,2.13,3.78,3.21-.46.09-.92.17-1.39.26Zm-2.17-5c.53-.61.71-1.34.53-2.21-.19-.89-.66-1.51-1.41-1.86-.75-.35-1.75-.41-2.98-.16-1.1.22-2.21.45-3.31.68.43,1.83.87,3.66,1.32,5.49,1.08-.23,2.16-.45,3.24-.67,1.21-.24,2.08-.66,2.61-1.27Z"/><path class="cls-3" d="m49.84,42.13c.06.34.12.67.17,1.01-2.81.42-5.63.89-8.44,1.39-.76-3.67-1.48-7.35-2.19-11.02,2.85-.5,5.69-.97,8.53-1.4.05.34.11.68.16,1.01-2.39.36-4.79.75-7.19,1.16.25,1.31.49,2.62.75,3.92,2.11-.36,4.21-.71,6.32-1.03.06.33.11.66.17,1-2.1.32-4.19.66-6.29,1.03.26,1.37.53,2.73.81,4.1,2.41-.42,4.81-.81,7.21-1.17Z"/><path class="cls-3" d="m61.02,37.78c.16,1.28.32,2.56.49,3.85-.41.05-.83.1-1.24.14-.17-1.28-.34-2.56-.51-3.84-1.92-2.24-3.88-4.46-5.87-6.66.47-.06.93-.12,1.4-.18,1.7,1.9,3.37,3.81,5.01,5.73,1.12-2.24,2.27-4.48,3.46-6.71.44-.04.87-.09,1.3-.13-1.4,2.59-2.75,5.2-4.05,7.81Z"/><path class="cls-3" d="m69.63,40.15c-1.01-.41-1.82-1.02-2.46-1.82-.63-.81-1.01-1.75-1.12-2.82-.11-1.07.06-2.07.53-2.98.47-.91,1.17-1.66,2.12-2.24.94-.58,2.03-.92,3.25-1.02,1.22-.09,2.34.07,3.35.49,1.01.42,1.82,1.05,2.43,1.89.61.83.95,1.79,1.01,2.87.07,1.08-.15,2.06-.64,2.96-.49.9-1.19,1.63-2.1,2.18-.91.55-1.95.87-3.12.97-1.17.09-2.26-.07-3.27-.48Zm5.68-1.36c.73-.45,1.29-1.04,1.67-1.78.38-.74.55-1.54.49-2.41-.06-.87-.33-1.65-.82-2.33-.49-.68-1.14-1.19-1.95-1.54-.81-.34-1.7-.48-2.67-.4-.97.08-1.83.35-2.59.81-.75.47-1.32,1.08-1.7,1.82-.38.75-.52,1.56-.43,2.43.09.87.39,1.64.9,2.3.51.67,1.17,1.16,1.97,1.5.8.33,1.67.46,2.62.39.94-.07,1.77-.34,2.5-.79Z"/><path class="cls-3" d="m83.04,38.75c-.9-.79-1.4-1.98-1.48-3.57-.11-2.14-.22-4.27-.33-6.41.43-.02.87-.04,1.3-.06.1,2.12.2,4.24.3,6.36.06,1.3.42,2.25,1.08,2.87.65.61,1.57.9,2.74.86,1.19-.04,2.08-.38,2.69-1.04.61-.66.9-1.63.87-2.93-.05-2.12-.1-4.24-.15-6.37.42,0,.84-.02,1.26-.03.04,2.14.08,4.28.12,6.42.03,1.59-.38,2.81-1.21,3.66-.83.85-2.01,1.3-3.54,1.35-1.53.05-2.74-.31-3.65-1.11Z"/><path class="cls-3" d="m102.18,29.44c-1.43-.02-2.87-.04-4.3-.04,0-.34,0-.68,0-1.02,3.31,0,6.61.07,9.92.17-.01.34-.02.68-.03,1.02-1.43-.05-2.87-.08-4.3-.11-.07,3.39-.14,6.78-.21,10.17-.42,0-.83-.02-1.25-.02.06-3.39.11-6.78.16-10.17Z"/><path class="cls-3" d="m120.14,29.2c-.27,3.72-.55,7.45-.84,11.17-.41-.03-.82-.06-1.23-.09.13-1.72.25-3.44.37-5.16-2.51-.17-5.02-.31-7.53-.42-.08,1.72-.16,3.44-.24,5.16-.42-.02-.83-.03-1.25-.05.16-3.73.31-7.46.46-11.19.43.02.86.03,1.3.05-.07,1.66-.15,3.32-.22,4.99,2.52.11,5.04.25,7.56.42.12-1.66.23-3.32.35-4.98.43.03.85.06,1.28.09Z"/><path class="cls-3" d="m131.66,40.46c-.04.34-.08.68-.12,1.02-2.79-.31-5.59-.58-8.38-.81.34-3.72.67-7.44.99-11.16,2.81.23,5.62.51,8.44.81-.04.34-.08.68-.12,1.02-2.37-.26-4.75-.49-7.12-.7-.12,1.32-.24,2.65-.36,3.97,2.09.18,4.17.39,6.26.61-.04.33-.08.67-.11,1-2.08-.22-4.16-.43-6.24-.61-.13,1.38-.26,2.76-.39,4.14,2.38.21,4.77.44,7.15.71Z"/><path class="cls-3" d="m150.87,32.83c-.65,3.68-1.32,7.36-2.01,11.04-.35-.06-.69-.11-1.04-.17-2-3.4-4.1-6.79-6.29-10.15-.44,3-.89,6-1.35,9-.42-.06-.84-.11-1.26-.17.55-3.7,1.09-7.4,1.61-11.1.36.05.72.1,1.08.15,2.22,3.36,4.36,6.75,6.39,10.16.54-2.99,1.07-5.98,1.58-8.97.43.07.86.14,1.29.21Z"/><path class="cls-3" d="m161.42,45.15c-.08.33-.16.67-.24,1-2.82-.58-5.63-1.12-8.44-1.62.75-3.67,1.47-7.35,2.17-11.02,2.84.5,5.68,1.04,8.53,1.62-.07.33-.15.67-.22,1-2.4-.49-4.8-.95-7.19-1.38-.26,1.31-.52,2.61-.78,3.92,2.1.38,4.21.78,6.32,1.21-.07.33-.15.66-.22.99-2.1-.42-4.2-.82-6.29-1.21-.28,1.36-.55,2.73-.84,4.09,2.4.44,4.8.9,7.21,1.4Z"/><path class="cls-3" d="m171.51,48.45c-.84-1.9-1.71-3.8-2.61-5.7-1.72,1.31-3.42,2.63-5.1,3.96-.48-.1-.97-.21-1.45-.31,1.97-1.56,3.97-3.11,5.99-4.63-1-2.09-2.04-4.18-3.12-6.26.5.1,1.01.21,1.51.32.9,1.76,1.79,3.52,2.64,5.28,1.61-1.21,3.23-2.41,4.87-3.6.48.11.95.23,1.43.34-1.95,1.4-3.88,2.81-5.78,4.24,1.07,2.23,2.1,4.47,3.08,6.72-.49-.12-.98-.24-1.47-.35Z"/><path class="cls-3" d="m179.98,39.97c-1.46-.37-2.93-.73-4.39-1.08.09-.33.18-.66.27-1,3.38.81,6.76,1.67,10.15,2.59-.1.33-.2.66-.31.99-1.47-.4-2.94-.79-4.4-1.16-.97,3.28-1.96,6.56-2.98,9.84-.42-.11-.85-.22-1.27-.33,1.01-3.28,1.98-6.56,2.93-9.85Z"/><path class="cls-4" d="m27.2,70.85c1.03.74,1.7,1.79,2.03,3.12.47,1.89,0,3.51-1.38,4.88-1.38,1.37-3.63,2.4-6.76,3.14-4.15.98-8.3,2.04-12.46,3.18-2.46-7.06-4.81-14.14-7.02-21.22,4.27-1.15,8.53-2.22,12.77-3.22,3.18-.74,5.74-.78,7.67-.14,1.93.64,3.08,1.84,3.5,3.56.25,1.05.18,2.04-.21,2.99-.39.95-1.05,1.77-1.98,2.47,1.53.07,2.82.49,3.85,1.23Zm-18.49-4.75c.5,1.68,1,3.35,1.51,5.03,1.94-.49,3.88-.97,5.82-1.43,1.44-.34,2.48-.81,3.11-1.41.63-.6.84-1.32.62-2.16-.22-.84-.76-1.38-1.63-1.63-.87-.25-2.04-.2-3.51.15-1.97.47-3.95.95-5.93,1.46Zm14.06,10.83c.64-.6.84-1.35.6-2.25-.47-1.78-2.24-2.34-5.3-1.62-2.24.53-4.49,1.08-6.74,1.66.54,1.76,1.1,3.51,1.65,5.27,2.2-.57,4.4-1.11,6.6-1.63,1.49-.35,2.55-.82,3.19-1.43Z"/><path class="cls-4" d="m30.08,57.38c2-.38,4-.75,5.99-1.1,1.38,7.23,2.85,14.47,4.41,21.69-1.85.33-3.7.67-5.55,1.03-1.71-7.2-3.32-14.41-4.84-21.62Z"/><path class="cls-4" d="m60.88,63.5c1.75-.2,3.5-.38,5.25-.55.32,2.97.65,5.93.98,8.9-1.21,1.02-2.63,1.87-4.28,2.54-1.65.67-3.33,1.11-5.06,1.33-2.48.31-4.78.14-6.94-.54-2.16-.67-3.98-1.76-5.45-3.29-1.47-1.53-2.42-3.36-2.83-5.51-.4-2.15-.17-4.18.73-6.08.9-1.9,2.35-3.5,4.35-4.78,2-1.28,4.37-2.1,7.07-2.43,2.26-.28,4.34-.19,6.25.25,1.9.45,3.54,1.24,4.9,2.35-1.16,1.12-2.3,2.25-3.43,3.39-1.99-1.46-4.28-2.04-6.85-1.72-1.62.2-3.02.68-4.19,1.44-1.17.75-2.02,1.71-2.54,2.87-.53,1.16-.67,2.43-.44,3.8.23,1.35.77,2.5,1.63,3.46.85.96,1.93,1.65,3.22,2.08,1.29.43,2.69.55,4.21.35,1.62-.2,3.03-.69,4.24-1.46-.28-2.14-.55-4.28-.81-6.41Z"/><path class="cls-4" d="m84.5,72.7c-1.79-.39-3.25-.92-4.37-1.62.54-1.32,1.1-2.63,1.66-3.94,1.09.64,2.35,1.13,3.8,1.49,1.45.36,2.88.52,4.31.48,1.59-.05,2.75-.29,3.51-.73.75-.45,1.12-1.02,1.11-1.74,0-.52-.24-.96-.71-1.3-.46-.34-1.05-.61-1.77-.8-.72-.19-1.69-.4-2.91-.61-1.89-.34-3.44-.68-4.66-1.02-1.22-.34-2.28-.93-3.2-1.77-.92-.83-1.42-1.98-1.51-3.45-.08-1.28.25-2.46.98-3.54.74-1.08,1.9-1.97,3.49-2.65,1.59-.68,3.56-1.06,5.9-1.12,1.63-.04,3.23.09,4.8.41,1.56.31,2.93.79,4.09,1.41-.6,1.29-1.2,2.59-1.79,3.88-2.33-1.14-4.69-1.67-7.02-1.61-1.64.04-2.84.32-3.6.81-.76.49-1.13,1.12-1.09,1.87.03.75.51,1.3,1.41,1.63.91.33,2.28.65,4.12.96,1.91.35,3.46.72,4.67,1.11,1.21.38,2.25,1.01,3.11,1.87.86.86,1.28,2.03,1.28,3.49,0,1.26-.39,2.41-1.15,3.45-.76,1.04-1.91,1.87-3.42,2.5-1.52.63-3.35.97-5.53,1.03-1.88.06-3.71-.11-5.5-.5Z"/><path class="cls-4" d="m109,54.9c-2.7-.07-5.39-.1-8.08-.11,0-1.39,0-2.77.01-4.16,7.43.02,14.85.27,22.29.75-.09,1.38-.19,2.77-.28,4.15-2.7-.17-5.4-.32-8.09-.43-.26,5.96-.54,11.92-.83,17.88-1.84-.08-3.68-.14-5.52-.19.18-5.96.35-11.92.51-17.89Z"/><path class="cls-4" d="m139.81,70.28c-3.76-.44-7.53-.82-11.28-1.13-.87,1.51-1.73,3.02-2.57,4.54-1.89-.15-3.78-.28-5.66-.39,4.07-7.12,8.38-14.17,12.89-21.14,1.96.18,3.91.37,5.87.59,3,7.72,5.7,15.47,8.05,23.25-1.94-.27-3.88-.53-5.82-.77-.48-1.65-.97-3.3-1.48-4.95Zm-1.28-4.05c-.95-2.94-1.94-5.88-2.98-8.81-1.64,2.66-3.25,5.34-4.83,8.03,2.6.23,5.2.49,7.81.78Z"/><path class="cls-4" d="m164.89,78.96c-1.07-2.31-2.18-4.61-3.33-6.9-.09-.02-.19-.03-.28-.05-1.65-.29-3.3-.58-4.94-.85-.39,2.02-.78,4.04-1.18,6.06-1.85-.3-3.7-.59-5.55-.87,1.29-7.26,2.51-14.53,3.65-21.8,3.72.55,7.45,1.15,11.19,1.81,2.29.41,4.23,1.1,5.78,2.07,1.55.97,2.64,2.13,3.28,3.49.63,1.36.75,2.84.37,4.44-.39,1.6-1.18,2.89-2.35,3.87-1.17.98-2.64,1.61-4.4,1.91,1.31,2.67,2.56,5.36,3.76,8.05-1.99-.42-3.99-.83-5.98-1.21Zm2.27-16.86c-.79-.82-2.07-1.4-3.85-1.71-1.61-.28-3.21-.56-4.82-.82-.46,2.53-.92,5.05-1.4,7.58,1.56.26,3.13.52,4.69.8,1.73.31,3.12.22,4.17-.27,1.05-.49,1.71-1.33,1.98-2.52.27-1.21.01-2.24-.77-3.06Z"/><path class="cls-4" d="m183.01,72.2c.76-.56,1.8-1.13,3.12-1.7.97-.42,1.71-.78,2.21-1.11.5-.32.83-.75.98-1.28.22-.75.04-1.44-.56-2.05-.6-.62-1.5-1.07-2.7-1.36-1.16-.28-2.24-.32-3.24-.12-1,.19-1.9.58-2.69,1.16-1.28-1.06-2.58-2.11-3.88-3.15,1.34-1.1,2.99-1.81,4.94-2.13,1.95-.32,4.15-.2,6.6.39,2.87.69,5.03,1.77,6.46,3.21,1.43,1.44,1.85,3.05,1.29,4.81-.26.83-.66,1.51-1.19,2.06-.53.54-1.1.97-1.71,1.28-.61.31-1.38.66-2.3,1.03-1.1.44-1.91.84-2.46,1.2-.55.35-.92.86-1.12,1.51-1.79-.45-3.57-.88-5.36-1.3.3-1.06.83-1.87,1.59-2.43Zm-3.33,9.36c-.47-.69-.6-1.42-.37-2.2.22-.77.73-1.35,1.51-1.72.78-.37,1.67-.44,2.65-.2.98.24,1.72.7,2.19,1.38.47.68.58,1.4.34,2.17-.25.77-.77,1.34-1.58,1.72-.8.38-1.67.45-2.61.22-.94-.23-1.64-.69-2.12-1.38Z"/><rect class="cls-1" width="196.6" height="93.2"/></g></svg>