<svg id="Component_41_1" data-name="Component 41 – 1" xmlns="http://www.w3.org/2000/svg" width="66.969" height="66.97" viewBox="0 0 66.969 66.97">
  <g id="Group_69" data-name="Group 69" transform="translate(-745.808 -5784.515)">
    <path id="Path_1474" data-name="Path 1474" d="M20.73,26.31,7.775,18.83,20.73,11.35v4.6H32.1v5.758H20.73Z" transform="translate(757.696 5789.773)" fill="#fb6580"/>
    <path id="Path_1475" data-name="Path 1475" d="M19.147,26.31,32.1,18.83,19.147,11.35v4.6H7.775v5.758H19.147Z" transform="translate(759.696 5808.773)" fill="#fb6580"/>
  </g>
  <path id="Path_203" data-name="Path 203" d="M14.162,3A11.162,11.162,0,0,0,3,14.162V58.808A11.161,11.161,0,0,0,14.162,69.97H58.808A11.161,11.161,0,0,0,69.969,58.808V14.162A11.161,11.161,0,0,0,58.808,3Zm44.646,7.441H14.162a3.721,3.721,0,0,0-3.721,3.721V58.808a3.721,3.721,0,0,0,3.721,3.721H58.808a3.72,3.72,0,0,0,3.721-3.721V14.162A3.72,3.72,0,0,0,58.808,10.441Z" transform="translate(-3 -3)" fill="#fb6580" fill-rule="evenodd"/>
</svg>
