<svg xmlns="http://www.w3.org/2000/svg" width="70" height="70" viewBox="0 0 70 70">
  <g id="Component_42_1" data-name="Component 42 – 1" transform="translate(3 3)">
    <g id="music" transform="translate(21.269 9.019)">
      <path id="music-2" data-name="music" d="M23.419,6.285a4.284,4.284,0,0,0-4.935-4.234L10.987,3.2A4.284,4.284,0,0,0,7.355,7.438v9.385A3.749,3.749,0,1,0,9.5,20.21V7.438a2.142,2.142,0,0,1,1.816-2.117l7.5-1.153a2.142,2.142,0,0,1,2.468,2.117V13.61A3.749,3.749,0,1,0,23.419,17ZM21.277,17A1.606,1.606,0,1,0,19.671,18.6,1.606,1.606,0,0,0,21.277,17ZM7.355,20.21a1.606,1.606,0,1,0-1.606,1.606A1.606,1.606,0,0,0,7.355,20.21Z" transform="translate(-2 -2)" fill="#fb6580" stroke="#fb6580" stroke-width="2" fill-rule="evenodd"/>
    </g>
    <g id="Ellipse_10" data-name="Ellipse 10" transform="translate(22.25 25.577)" fill="#fb6580" stroke="#fb6580" stroke-width="2">
      <ellipse cx="2.453" cy="2.453" rx="2.453" ry="2.453" stroke="none"/>
      <ellipse cx="2.453" cy="2.453" rx="1.453" ry="1.453" fill="none"/>
    </g>
    <g id="Ellipse_11" data-name="Ellipse 11" transform="translate(36.801 21.118)" fill="#fb6580" stroke="#fb6580" stroke-width="2">
      <ellipse cx="2.453" cy="2.453" rx="2.453" ry="2.453" stroke="none"/>
      <ellipse cx="2.453" cy="2.453" rx="1.453" ry="1.453" fill="none"/>
    </g>
    <g id="contest" transform="translate(-2 -2)">
      <path id="Path_1478" data-name="Path 1478" d="M27,48.539c-18.123,0-21.334-19.083-21.9-34.218-.158-4.21-.237-6.315,1.26-8.263s3.288-2.267,6.871-2.906A78.653,78.653,0,0,1,27,2,78.65,78.65,0,0,1,40.769,3.153c3.583.639,5.374.958,6.871,2.906s1.418,4.053,1.26,8.263C48.331,29.457,45.12,48.539,27,48.539Z" transform="translate(7.003)" fill="none" stroke="#fb6580" stroke-width="6"/>
      <path id="Path_1480" data-name="Path 1480" d="M22.486,5,25.64,6.051C28.931,7.148,30.577,7.7,31.518,9s.941,3.041.941,6.51v.241c0,2.861,0,4.292-.689,5.462s-1.939,1.865-4.441,3.255L17.5,29.932" transform="translate(33.541 6.73)" fill="none" stroke="#fb6580" stroke-width="6"/>
      <path id="Path_1481" data-name="Path 1481" d="M11.973,5,8.819,6.051C5.528,7.148,3.882,7.7,2.941,9S2,12.043,2,15.512v.241c0,2.861,0,4.292.689,5.462s1.939,1.865,4.441,3.255l9.829,5.461" transform="translate(0 6.73)" fill="none" stroke="#fb6580" stroke-width="6"/>
      <path id="Path_1482" data-name="Path 1482" d="M12,16v7.844" transform="translate(22 32.539)" fill="none" stroke="#fb6580" stroke-linecap="round" stroke-width="6"/>
      <path id="Path_1483" data-name="Path 1483" d="M31.77,27.811H8.5l1.128-5.638a3.324,3.324,0,0,1,3.26-2.672h14.5a3.324,3.324,0,0,1,3.26,2.672Z" transform="translate(13.865 38.189)" fill="none" stroke="#fb6580" stroke-linecap="round" stroke-linejoin="round" stroke-width="6"/>
      <path id="Path_1484" data-name="Path 1484" d="M43.406,22H6" transform="translate(9.297 44)" fill="none" stroke="#fb6580" stroke-linecap="round" stroke-width="6"/>
    </g>
  </g>
</svg>
