<svg xmlns="http://www.w3.org/2000/svg" width="40.25" height="40.241" viewBox="0 0 40.25 40.241"><path d="M20.124,12.041A10.317,10.317,0,1,0,30.441,22.358,10.3,10.3,0,0,0,20.124,12.041Zm0,17.025a6.708,6.708,0,1,1,6.708-6.708A6.72,6.72,0,0,1,20.124,29.066ZM33.27,11.619a2.406,2.406,0,1,1-2.406-2.406A2.4,2.4,0,0,1,33.27,11.619ZM40.1,14.061c-.153-3.224-.889-6.079-3.25-8.432s-5.208-3.089-8.432-3.251c-3.322-.189-13.28-.189-16.6,0-3.215.153-6.07.889-8.432,3.242S.3,10.829.136,14.052c-.189,3.322-.189,13.28,0,16.6.153,3.224.889,6.079,3.25,8.432s5.208,3.089,8.432,3.251c3.322.189,13.28.189,16.6,0,3.224-.153,6.079-.889,8.432-3.251s3.089-5.208,3.25-8.432c.189-3.322.189-13.271,0-16.594ZM35.811,34.22a6.791,6.791,0,0,1-3.825,3.825c-2.649,1.051-8.934.808-11.862.808s-9.222.233-11.862-.808A6.791,6.791,0,0,1,4.437,34.22c-1.051-2.649-.808-8.934-.808-11.862S3.4,13.136,4.437,10.5A6.791,6.791,0,0,1,8.262,6.671c2.649-1.051,8.934-.808,11.862-.808s9.222-.233,11.862.808A6.791,6.791,0,0,1,35.811,10.5c1.051,2.649.808,8.934.808,11.862S36.861,31.58,35.811,34.22Z" transform="translate(0.005 -2.237)" fill="#fff"/></svg>