<svg xmlns="http://www.w3.org/2000/svg" width="91.933" height="67.485" viewBox="0 0 91.933 67.485">
  <g id="live-concert" transform="translate(0.5 0.5)">
    <path id="Path_1476" data-name="Path 1476" d="M19.085,5.1a3.172,3.172,0,0,1,0,4.486,39.122,39.122,0,0,0,.25,55.63,3.172,3.172,0,1,1-4.441,4.53A45.466,45.466,0,0,1,14.6,5.1,3.172,3.172,0,0,1,19.085,5.1ZM74.7,5.409a3.172,3.172,0,0,1,4.486.045A45.466,45.466,0,0,1,78.9,69.4a3.172,3.172,0,1,1-4.49-4.481A39.122,39.122,0,0,0,74.656,9.9,3.172,3.172,0,0,1,74.7,5.409ZM31.107,18.2a3.172,3.172,0,0,1-.149,4.484A19.6,19.6,0,0,0,31.1,51.863a3.172,3.172,0,1,1-4.293,4.671,25.938,25.938,0,0,1-.183-38.487A3.172,3.172,0,0,1,31.107,18.2Zm31.44.161a3.172,3.172,0,0,1,4.485-.1,25.926,25.926,0,0,1-.181,38.069A3.172,3.172,0,0,1,62.506,51.7a19.584,19.584,0,0,0,.14-28.861A3.172,3.172,0,0,1,62.547,18.356Z" transform="translate(-1.25 -4.172)" fill="#fb6580" stroke="#fb6580" stroke-width="1" fill-rule="evenodd"/>
    <path id="Path_1477" data-name="Path 1477" d="M25.464,15.138c3.789,2.781,5.683,4.172,5.683,6.551s-1.894,3.769-5.683,6.551c-1.046.768-2.083,1.49-3.036,2.093-.836.528-1.783,1.075-2.764,1.612-3.779,2.069-5.67,3.1-7.364,1.958s-1.849-3.543-2.157-8.337C10.055,24.209,10,22.88,10,21.689s.055-2.521.143-3.877c.308-4.794.462-7.192,2.157-8.337s3.585-.111,7.364,1.958c.981.537,1.928,1.083,2.764,1.612C23.381,13.647,24.419,14.369,25.464,15.138Z" transform="translate(27.007 11.42)" fill="#fb6580" stroke="#fb6580" stroke-width="1"/>
  </g>
</svg>
