<svg id="Icon_material-live-tv" data-name="Icon material-live-tv" xmlns="http://www.w3.org/2000/svg" width="72.685" height="66.077" viewBox="0 0 72.685 66.077">
  <path id="Icon_material-live-tv-2" data-name="Icon material-live-tv" d="M67.577,16.215H42.5L53.37,5.346,51.058,3,37.842,16.215,24.627,3,22.281,5.346l10.9,10.87H8.108A6.606,6.606,0,0,0,1.5,22.823V62.469a6.627,6.627,0,0,0,6.608,6.608H67.577a6.627,6.627,0,0,0,6.608-6.608V22.823A6.606,6.606,0,0,0,67.577,16.215Zm0,46.254H8.108V22.823H67.577ZM27.931,29.431V55.862L51.058,42.646Z" transform="translate(-1.5 -3)" fill="#fb6580"/>
</svg>
