<svg id="Component_39_2" data-name="Component 39 – 2" xmlns="http://www.w3.org/2000/svg" width="65.324" height="66.97" viewBox="0 0 65.324 66.97">
  <g id="music">
    <path id="music-2" data-name="music" d="M67.324,15.068A13.065,13.065,0,0,0,52.273,2.155L29.409,5.672A13.065,13.065,0,0,0,18.331,18.585V47.206a11.434,11.434,0,1,0,6.532,10.332V18.585A6.532,6.532,0,0,1,30.4,12.129L53.266,8.611a6.532,6.532,0,0,1,7.526,6.456v22.34A11.434,11.434,0,1,0,67.324,47.74ZM60.792,47.739a4.9,4.9,0,1,0-4.9,4.9A4.9,4.9,0,0,0,60.792,47.739Zm-42.461,9.8a4.9,4.9,0,1,0-4.9,4.9A4.9,4.9,0,0,0,18.331,57.538Z" transform="translate(-2 -2)" fill="#fb6580" fill-rule="evenodd"/>
  </g>
  <ellipse id="Ellipse_10" data-name="Ellipse 10" cx="7.481" cy="7.481" rx="7.481" ry="7.481" transform="translate(2.992 50.5)" fill="#fb6580"/>
  <ellipse id="Ellipse_11" data-name="Ellipse 11" cx="7.481" cy="7.481" rx="7.481" ry="7.481" transform="translate(47.37 36.899)" fill="#fb6580"/>
</svg>
