<?xml version="1.0" encoding="UTF-8"?><svg id="Layer_2" xmlns="http://www.w3.org/2000/svg" xmlns:xlink="http://www.w3.org/1999/xlink" viewBox="0 0 311.43 311.43"><defs><style>.cls-1{fill:url(#linear-gradient);}.cls-1,.cls-2{stroke-width:0px;}.cls-2{fill:#fff;}</style><linearGradient id="linear-gradient" x1="0" y1="155.72" x2="311.43" y2="155.72" gradientUnits="userSpaceOnUse"><stop offset="0" stop-color="#fb6580"/><stop offset="1" stop-color="#f32377"/></linearGradient></defs><g id="Layer_1-2"><circle class="cls-1" cx="155.72" cy="155.72" r="155.72"/><path class="cls-2" d="m227.69,101.59H87.74c-9.94,0-18,8.06-18,18v115.76c0,2.67,3.23,4.01,5.12,2.12l38.5-33.5c.94-.94,2.21-1.46,3.54-1.46h110.79c9.94,0,18-8.06,18-18v-64.91c0-9.94-8.06-18-18-18Zm-38.89,54.67l-41.77,24.11c-3.29,1.91-7.42-.47-7.42-4.28v-48.22c0-3.81,4.13-6.19,7.42-4.29l41.77,24.12c3.29,1.9,3.29,6.66,0,8.56Zm27.16,28.23c-6.11.99-11.3-4.21-10.3-10.3.61-3.69,3.59-6.67,7.28-7.28,6.1-1.01,11.3,4.19,10.3,10.3-.6,3.7-3.59,6.68-7.28,7.28Zm-3.02-23.28c-3.69-.61-6.67-3.59-7.28-7.28-1.01-6.1,4.19-11.3,10.3-10.3,3.7.6,6.68,3.59,7.28,7.28.99,6.11-4.21,11.3-10.3,10.3Zm1.73-24.03c-5.03.12-9.13-3.93-9.13-8.92s3.99-8.92,8.92-8.92,9.07,4.17,8.9,9.22c-.15,4.65-4.04,8.51-8.69,8.61Z"/><rect class="cls-2" x="114.08" y="86.26" width="49.28" height="12.01" rx="6.01" ry="6.01" transform="translate(105.87 -71.06) rotate(45)"/><rect class="cls-2" x="152.08" y="86.26" width="49.28" height="12.01" rx="6.01" ry="6.01" transform="translate(366.91 32.54) rotate(135)"/></g></svg>