<?xml version="1.0" encoding="UTF-8"?><svg id="Layer_2" xmlns="http://www.w3.org/2000/svg" xmlns:xlink="http://www.w3.org/1999/xlink" viewBox="0 0 966.71 311.43"><defs><style>.cls-1{fill:url(#linear-gradient);}.cls-1,.cls-2{stroke-width:0px;}.cls-2{fill:#fff;}</style><linearGradient id="linear-gradient" x1="0" y1="155.72" x2="311.43" y2="155.72" gradientUnits="userSpaceOnUse"><stop offset="0" stop-color="#fb6580"/><stop offset="1" stop-color="#f32377"/></linearGradient></defs><g id="Layer_1-2"><path class="cls-2" d="m461.25,106.77c2.1-1.41,4.41-2.1,6.9-2.1,3.59,0,6.82,1.21,9.7,3.62,2.88,2.42,4.33,5.42,4.33,9.01,0,1.87-.46,3.74-1.4,5.61l-43.27,90.51c-1.4,2.97-3.39,5.22-5.96,6.79-2.58,1.55-5.42,2.34-8.54,2.34s-5.81-.78-8.53-2.34c-2.73-1.56-4.79-3.82-6.2-6.79l-43.5-90.51c-.78-1.55-1.17-3.35-1.17-5.38,0-3.59,1.52-6.63,4.56-9.12,3.04-2.49,6.5-3.74,10.41-3.74,5.61,0,9.74,2.73,12.4,8.19l23.18,51.17c3.72,8.21,15.37,8.2,19.08-.01l22.98-50.93c1.25-2.81,2.92-4.91,5.03-6.31Z"/><path class="cls-2" d="m499.06,94.72c-3.12-2.89-4.67-6.67-4.67-11.34s1.55-8.42,4.67-11.23c3.12-2.81,7.33-4.21,12.63-4.21s9.31,1.4,12.51,4.21c3.19,2.81,4.79,6.55,4.79,11.23s-1.56,8.46-4.67,11.34c-3.12,2.88-7.33,4.33-12.63,4.33s-9.51-1.44-12.63-4.33Zm2.23,124.42c-2.73-2.42-4.09-5.89-4.09-10.41v-90.27c0-4.52,1.36-7.95,4.09-10.29,2.72-2.34,6.2-3.51,10.41-3.51s7.72,1.17,10.52,3.51c2.8,2.34,4.21,5.77,4.21,10.29v90.27c0,4.52-1.41,7.99-4.21,10.41-2.81,2.42-6.31,3.62-10.52,3.62s-7.68-1.21-10.41-3.62Z"/><path class="cls-2" d="m642.47,111.44c7.64,4.84,13.6,11.7,17.89,20.58,4.29,8.89,6.44,19.26,6.44,31.11s-2.15,22.33-6.44,31.45c-4.29,9.12-10.28,16.18-18.01,21.17-7.72,4.99-16.49,7.48-26.31,7.48-8.27,0-15.63-1.79-22.1-5.38-6.47-3.59-11.42-8.58-14.86-14.97v5.85c0,4.21-1.33,7.56-3.98,10.06-2.65,2.49-6.16,3.74-10.52,3.74s-7.83-1.25-10.41-3.74c-2.57-2.5-3.85-5.85-3.85-10.06v-124.66c0-4.05,1.36-7.32,4.09-9.82,2.72-2.49,6.27-3.74,10.64-3.74s7.87,1.17,10.52,3.51c2.65,2.34,3.98,5.54,3.98,9.59v24.62c0,4.77,5.44,7.45,9.22,4.53,1.7-1.32,3.54-2.49,5.52-3.53,6.39-3.35,13.64-5.03,21.75-5.03,9.97,0,18.78,2.42,26.42,7.25Zm-12.63,79.29c5.15-6.55,7.72-15.75,7.72-27.6s-2.53-20.66-7.6-26.9c-5.07-6.23-12.28-9.35-21.63-9.35s-16.57,3.16-21.63,9.47c-5.07,6.31-7.6,15.4-7.6,27.24s2.53,20.97,7.6,27.37c5.06,6.39,12.27,9.59,21.63,9.59s16.37-3.27,21.52-9.82Z"/><path class="cls-2" d="m758.06,107.23c2.34,2.03,3.51,5.07,3.51,9.12s-1.02,7.33-3.04,9.35c-2.03,2.03-5.7,3.35-10.99,3.98l-7.02.7c-9.2.93-15.94,4.06-20.23,9.35-4.29,5.3-6.43,11.92-6.43,19.88v49.11c0,4.52-1.41,7.99-4.21,10.41-2.81,2.42-6.31,3.62-10.52,3.62s-7.68-1.21-10.41-3.62c-2.73-2.42-4.09-5.89-4.09-10.41v-90.51c0-4.36,1.36-7.72,4.09-10.06,2.72-2.34,6.11-3.51,10.17-3.51s7.33,1.13,9.83,3.39c2.49,2.26,3.74,5.49,3.74,9.7v9.35c2.96-6.86,7.37-12.16,13.22-15.9,5.85-3.74,12.35-5.85,19.53-6.31l3.27-.23c4.05-.31,7.25.54,9.59,2.57Z"/><path class="cls-2" d="m868.79,193.07c1.63,2.03,2.45,4.75,2.45,8.19,0,4.83-2.89,8.88-8.65,12.16-5.3,2.97-11.31,5.35-18.01,7.13-6.71,1.79-13.1,2.69-19.18,2.69-18.4,0-32.98-5.3-43.73-15.9-10.76-10.6-16.13-25.1-16.13-43.5,0-11.7,2.34-22.06,7.01-31.11,4.68-9.04,11.26-16.06,19.76-21.05,8.5-4.99,18.13-7.49,28.88-7.49s19.25,2.26,26.9,6.79c7.64,4.52,13.56,10.91,17.77,19.17,4.21,8.27,6.31,18.01,6.31,29.23,0,6.71-2.96,10.06-8.88,10.06h-60.75c-4.48,0-7.95,4.2-6.92,8.56,1.53,6.51,4.13,11.57,7.8,15.18,5.15,5.07,12.63,7.6,22.45,7.6,4.99,0,9.39-.62,13.21-1.87,3.82-1.24,8.15-2.96,12.98-5.15,4.67-2.49,8.1-3.74,10.29-3.74,2.65,0,4.79,1.02,6.43,3.04Zm-65.95-60.81c-3.17,3.33-5.49,7.63-6.97,12.9-1.22,4.36,2.34,8.61,6.87,8.61h36.57c4.33,0,7.8-3.92,6.98-8.17-1.08-5.58-3.13-10.07-6.14-13.46-4.36-4.91-10.44-7.37-18.24-7.37s-14.31,2.5-19.06,7.48Z"/><path class="cls-2" d="m963.2,107.23c2.34,2.03,3.51,5.07,3.51,9.12s-1.02,7.33-3.04,9.35c-2.03,2.03-5.7,3.35-10.99,3.98l-7.02.7c-9.2.93-15.94,4.06-20.23,9.35-4.29,5.3-6.43,11.92-6.43,19.88v49.11c0,4.52-1.41,7.99-4.21,10.41-2.81,2.42-6.31,3.62-10.52,3.62s-7.68-1.21-10.41-3.62c-2.73-2.42-4.09-5.89-4.09-10.41v-90.51c0-4.36,1.36-7.72,4.09-10.06,2.72-2.34,6.11-3.51,10.17-3.51s7.33,1.13,9.83,3.39c2.49,2.26,3.74,5.49,3.74,9.7v9.35c2.96-6.86,7.37-12.16,13.22-15.9,5.85-3.74,12.35-5.85,19.53-6.31l3.27-.23c4.05-.31,7.25.54,9.59,2.57Z"/><circle class="cls-1" cx="155.72" cy="155.72" r="155.72"/><path class="cls-2" d="m227.69,101.59H87.74c-9.94,0-18,8.06-18,18v115.76c0,2.67,3.23,4.01,5.12,2.12l38.5-33.5c.94-.94,2.21-1.46,3.54-1.46h110.79c9.94,0,18-8.06,18-18v-64.91c0-9.94-8.06-18-18-18Zm-38.89,54.67l-41.77,24.11c-3.29,1.91-7.42-.47-7.42-4.28v-48.22c0-3.81,4.13-6.19,7.42-4.29l41.77,24.12c3.29,1.9,3.29,6.66,0,8.56Zm27.16,28.23c-6.11.99-11.3-4.21-10.3-10.3.61-3.69,3.59-6.67,7.28-7.28,6.1-1.01,11.3,4.19,10.3,10.3-.6,3.7-3.59,6.68-7.28,7.28Zm-3.02-23.28c-3.69-.61-6.67-3.59-7.28-7.28-1.01-6.1,4.19-11.3,10.3-10.3,3.7.6,6.68,3.59,7.28,7.28.99,6.11-4.21,11.3-10.3,10.3Zm1.73-24.03c-5.03.12-9.13-3.93-9.13-8.92s3.99-8.92,8.92-8.92,9.07,4.17,8.9,9.22c-.15,4.65-4.04,8.51-8.69,8.61Z"/><rect class="cls-2" x="114.08" y="86.26" width="49.28" height="12.01" rx="6.01" ry="6.01" transform="translate(105.87 -71.06) rotate(45)"/><rect class="cls-2" x="152.08" y="86.26" width="49.28" height="12.01" rx="6.01" ry="6.01" transform="translate(366.91 32.54) rotate(135)"/></g></svg>