<svg xmlns="http://www.w3.org/2000/svg" width="51.555" height="37.119" viewBox="0 0 51.555 37.119"><g transform="translate(1.5 1.5)"><path d="M49.038,11.341a6.135,6.135,0,0,0-4.281-4.414C40.96,6,25.777,6,25.777,6S10.593,6,6.8,7.015a6.135,6.135,0,0,0-4.281,4.414A64,64,0,0,0,1.5,23.1,64,64,0,0,0,2.516,34.867,6.135,6.135,0,0,0,6.8,39.1c3.8,1.015,18.98,1.015,18.98,1.015s15.184,0,18.98-1.015a6.135,6.135,0,0,0,4.281-4.414A64,64,0,0,0,50.053,23.1a64,64,0,0,0-1.015-11.763Z" transform="translate(-1.499 -6)" fill="none" stroke="#fff" stroke-linecap="round" stroke-linejoin="round" stroke-width="3"/><path d="M14.625,27.153l12.69-7.217L14.625,12.72Z" transform="translate(4.687 -2.833)" fill="none" stroke="#fff" stroke-linecap="round" stroke-linejoin="round" stroke-width="3"/></g></svg>