<svg xmlns="http://www.w3.org/2000/svg" width="23.042" height="20" viewBox="0 0 23.042 20"><path d="M89.412-790.588a4.532,4.532,0,0,1-3.324-1.382,4.532,4.532,0,0,1-1.382-3.324,4.532,4.532,0,0,1,1.382-3.323A4.531,4.531,0,0,1,89.412-800a4.531,4.531,0,0,1,3.324,1.382,4.532,4.532,0,0,1,1.382,3.323,4.532,4.532,0,0,1-1.382,3.324A4.532,4.532,0,0,1,89.412-790.588ZM80-783.529v-.941a3.546,3.546,0,0,1,.5-1.823,3.26,3.26,0,0,1,1.382-1.294,18.419,18.419,0,0,1,3.382-1.294,15.284,15.284,0,0,1,4.147-.529h.412a1.111,1.111,0,0,1,.353.059,8.181,8.181,0,0,0-.4,1.1,9.147,9.147,0,0,0-.25,1.191h-.118a12.332,12.332,0,0,0-3.75.529,19.365,19.365,0,0,0-2.721,1.059,1.146,1.146,0,0,0-.426.412,1.106,1.106,0,0,0-.162.588v.941h7.412a7.451,7.451,0,0,0,.471,1.221,9.73,9.73,0,0,0,.647,1.132H82.353a2.266,2.266,0,0,1-1.662-.691A2.266,2.266,0,0,1,80-783.529Zm16.294,2.588-.176-.824q-.353-.147-.662-.309a5.13,5.13,0,0,1-.632-.4l-.853.265a1.1,1.1,0,0,1-.75-.029,1.182,1.182,0,0,1-.574-.471l-.235-.412a1.152,1.152,0,0,1-.147-.765,1.035,1.035,0,0,1,.382-.677l.647-.559a5.431,5.431,0,0,1-.059-.765,5.431,5.431,0,0,1,.059-.765l-.647-.559a1.025,1.025,0,0,1-.382-.662,1.122,1.122,0,0,1,.147-.75l.265-.441a1.191,1.191,0,0,1,.559-.471,1.052,1.052,0,0,1,.735-.029l.853.265a5.1,5.1,0,0,1,.632-.4q.309-.162.662-.309l.176-.853a1.127,1.127,0,0,1,.4-.662,1.111,1.111,0,0,1,.721-.25h.471a1.073,1.073,0,0,1,.721.265,1.2,1.2,0,0,1,.4.677l.176.823a5.918,5.918,0,0,1,.662.323,4.658,4.658,0,0,1,.632.441l.794-.265a1.109,1.109,0,0,1,.794,0,1.133,1.133,0,0,1,.588.5l.235.412a1.153,1.153,0,0,1,.147.765,1.034,1.034,0,0,1-.382.676l-.647.559a4.465,4.465,0,0,1,.059.735,4.465,4.465,0,0,1-.059.735l.647.559a1.026,1.026,0,0,1,.382.662,1.122,1.122,0,0,1-.147.75l-.265.441a1.191,1.191,0,0,1-.559.471,1.053,1.053,0,0,1-.735.029l-.853-.265a5.128,5.128,0,0,1-.632.4q-.309.162-.662.309l-.176.853a1.127,1.127,0,0,1-.4.662,1.111,1.111,0,0,1-.721.25h-.471a1.073,1.073,0,0,1-.721-.265A1.2,1.2,0,0,1,96.294-780.941Zm1.353-2.588a2.265,2.265,0,0,0,1.662-.691,2.265,2.265,0,0,0,.691-1.662,2.265,2.265,0,0,0-.691-1.662,2.266,2.266,0,0,0-1.662-.691,2.266,2.266,0,0,0-1.662.691,2.265,2.265,0,0,0-.691,1.662,2.265,2.265,0,0,0,.691,1.662A2.265,2.265,0,0,0,97.647-783.529Zm-8.235-9.412a2.266,2.266,0,0,0,1.662-.691,2.266,2.266,0,0,0,.691-1.662,2.266,2.266,0,0,0-.691-1.662,2.266,2.266,0,0,0-1.662-.691,2.266,2.266,0,0,0-1.662.691,2.266,2.266,0,0,0-.691,1.662,2.266,2.266,0,0,0,.691,1.662A2.266,2.266,0,0,0,89.412-792.941ZM89.412-795.294ZM89.765-783.529Z" transform="translate(-80 800)" fill="#fff"/></svg>