<svg xmlns="http://www.w3.org/2000/svg" width="22.417" height="13.501" viewBox="0 0 22.417 13.501">
  <path id="Icon_ionic-ios-arrow-round-forward" data-name="Icon ionic-ios-arrow-round-forward" d="M16,11.51A.857.857,0,0,1,16,12.8L11.27,17.086H29.288a.918.918,0,1,1,0,1.828H11.278L16.012,23.2A.863.863,0,0,1,16,24.49a1.086,1.086,0,0,1-1.425-.007L8.163,18.647h0a1.024,1.024,0,0,1-.21-.288.8.8,0,0,1-.078-.352.872.872,0,0,1,.288-.64l6.416-5.836A1.068,1.068,0,0,1,16,11.51Z" transform="translate(-7.875 -11.252)" fill="#fb6580"/>
</svg>
