<svg xmlns="http://www.w3.org/2000/svg" width="46" height="12" viewBox="0 0 46 12"><circle cx="6" cy="6" r="6" fill="#ff254c"/><path d="M13.695,8.141l-.617-.617L10.609,9.992,8.141,7.523l-.617.617,2.469,2.469L7.523,13.078l.617.617,2.469-2.469,2.469,2.469.617-.617-2.469-2.469Z" transform="translate(-4.523 -4.523)" fill="#fff"/><circle cx="6" cy="6" r="6" transform="translate(17)" fill="#ffc525"/><path d="M7.765,14.625H.6c-.33,0-.6.156-.6.348v.348c0,.192.267.348.6.348H7.765c.33,0,.6-.156.6-.348v-.348C8.362,14.781,8.095,14.625,7.765,14.625Z" transform="translate(19.144 -8.955)" fill="#fff"/><circle cx="6" cy="6" r="6" transform="translate(34)" fill="#25f2ba"/><g transform="translate(37.289 3.534)"><path d="M22.5,4.5h1.844V6.344" transform="translate(-18.812 -4.5)" fill="none" stroke="#fff" stroke-linecap="round" stroke-linejoin="round" stroke-width="1"/><path d="M6.344,24.344H4.5V22.5" transform="translate(-4.5 -18.812)" fill="none" stroke="#fff" stroke-linecap="round" stroke-linejoin="round" stroke-width="1"/><path d="M23.151,4.5,21,6.651" transform="translate(-17.62 -4.5)" fill="none" stroke="#fff" stroke-linecap="round" stroke-linejoin="round" stroke-width="1"/><path d="M4.5,23.151,6.651,21" transform="translate(-4.5 -17.62)" fill="none" stroke="#fff" stroke-linecap="round" stroke-linejoin="round" stroke-width="1"/></g></svg>