<svg id="calendar-today" xmlns="http://www.w3.org/2000/svg" width="20" height="20" viewBox="0 0 20 20">
  <path id="Path_204" data-name="Path 204" d="M15,17a2,2,0,1,0-2-2A2,2,0,0,0,15,17Z" transform="translate(-1.571 -1.571)" fill="#9a9a9a"/>
  <path id="Path_205" data-name="Path 205" d="M6.333,3A3.333,3.333,0,0,0,3,6.333V19.667A3.333,3.333,0,0,0,6.333,23H19.667A3.333,3.333,0,0,0,23,19.667V6.333A3.333,3.333,0,0,0,19.667,3ZM5.222,19.667V7.444H20.778V19.667a1.111,1.111,0,0,1-1.111,1.111H6.333A1.111,1.111,0,0,1,5.222,19.667Z" transform="translate(-3 -3)" fill="#9a9a9a" fill-rule="evenodd"/>
</svg>
