<svg xmlns="http://www.w3.org/2000/svg" width="71.825" height="59.257" viewBox="0 0 71.825 59.257">
  <g id="Icon_feather-camera" data-name="Icon feather-camera" transform="translate(1.35 1.35)">
    <path id="Path_695" data-name="Path 695" d="M70.625,54.772a6.284,6.284,0,0,1-6.284,6.284H7.784A6.284,6.284,0,0,1,1.5,54.772V20.21a6.284,6.284,0,0,1,6.284-6.284H20.352L26.636,4.5H45.488l6.284,9.426H64.341a6.284,6.284,0,0,1,6.284,6.284Z" transform="translate(-1.5 -4.5)" fill="none" stroke="#f2f2f2" stroke-linecap="round" stroke-linejoin="round" stroke-width="2.7"/>
    <path id="Path_696" data-name="Path 696" d="M40.278,27.639A14.139,14.139,0,1,1,26.139,13.5,14.139,14.139,0,0,1,40.278,27.639Z" transform="translate(8.423 3.467)" fill="none" stroke="#f2f2f2" stroke-linecap="round" stroke-linejoin="round" stroke-width="2.7"/>
  </g>
</svg>
