<svg xmlns="http://www.w3.org/2000/svg" width="33.689" height="33.689" viewBox="0 0 33.689 33.689"><path d="M14.275,19.9l7.406-4.275L14.275,11.35v2.63h-6.5v3.291h6.5Z" transform="translate(2.117 5.044)" fill="#f2f2f2"/><path d="M9.052,7A1.883,1.883,0,0,0,7,8.646a1.883,1.883,0,0,0,2.052,1.646H25.472a1.883,1.883,0,0,0,2.052-1.646A1.883,1.883,0,0,0,25.472,7Z" transform="translate(-0.417 0.599)" fill="#f2f2f2"/><path d="M8.615,3A5.615,5.615,0,0,0,3,8.615v22.46a5.615,5.615,0,0,0,5.615,5.615h22.46a5.615,5.615,0,0,0,5.615-5.615V8.615A5.615,5.615,0,0,0,31.074,3Zm22.46,3.743H8.615A1.872,1.872,0,0,0,6.743,8.615v22.46a1.872,1.872,0,0,0,1.872,1.872h22.46a1.872,1.872,0,0,0,1.872-1.872V8.615A1.872,1.872,0,0,0,31.074,6.743Z" transform="translate(-3 -3)" fill="#f2f2f2" fill-rule="evenodd"/></svg>