<svg xmlns="http://www.w3.org/2000/svg" width="24.734" height="35.335" viewBox="0 0 24.734 35.335"><path d="M29.734,14.367a12.353,12.353,0,0,1-5.3,10.15V37.335H19.866l-2.5-2.5-2.5,2.5H10.3V24.518a12.368,12.368,0,1,1,19.434-10.15Zm-3.533,0a8.834,8.834,0,1,1-8.834-8.834A8.834,8.834,0,0,1,26.2,14.367ZM13.834,33.373l3.533-3.533L20.9,33.373V26.222a12.445,12.445,0,0,1-7.067,0Z" transform="translate(-5 -2)" fill="#f2f2f2" fill-rule="evenodd"/><path d="M8.228,0,6.171,6.171H0l5.143,4.114L3.086,16.457l5.143-4.114,5.143,4.114-2.057-6.171,5.143-4.114H10.285Z" transform="translate(4.196 3.291)" fill="#f2f2f2"/></svg>