<svg width="19" height="30" viewBox="0 0 19 30" fill="none" xmlns="http://www.w3.org/2000/svg">
<rect x="3.36535" y="27.269" width="12.641" height="1.48718" stroke="#FB6580" stroke-width="1.48718" stroke-linejoin="round"/>
<rect x="5.10901" y="21.2051" width="9.15384" height="4.69231" stroke="#FB6580" stroke-width="2" stroke-linejoin="round"/>
<path d="M8.19861 14.9994L7.45502 20.3905H11.5448L10.8012 14.9994L9.49989 14.2559L8.19861 14.9994Z" stroke="#FB6580" stroke-width="2" stroke-linejoin="round"/>
<path d="M9.49999 2.95619L11.2058 6.78295C11.3511 7.10898 11.6592 7.33283 12.0142 7.37029L16.1808 7.81005L13.0684 10.6149C12.8032 10.8538 12.6856 11.216 12.7596 11.5652L13.6289 15.6638L9.99961 13.5705C9.6904 13.3921 9.30958 13.3921 9.00037 13.5705L5.37105 15.6638L6.24036 11.5652C6.31442 11.216 6.19674 10.8538 5.93158 10.6149L2.81923 7.81005L6.98581 7.37029C7.34079 7.33283 7.64888 7.10898 7.79421 6.78295L9.49999 2.95619Z" stroke="#FB6580" stroke-width="2" stroke-linejoin="round"/>
</svg>
