<svg xmlns="http://www.w3.org/2000/svg" xmlns:xlink="http://www.w3.org/1999/xlink" width="271" height="231.815" viewBox="0 0 271 231.815"><defs><linearGradient id="a" x1="0.5" x2="0.5" y2="1" gradientUnits="objectBoundingBox"><stop offset="0" stop-color="#2ab1ff"/><stop offset="1" stop-color="#4bce8d"/></linearGradient></defs><path d="M106.343-773.657,211.713-707.8l105.371-65.857Zm0,184.4A25.366,25.366,0,0,1,87.738-597,25.366,25.366,0,0,1,80-615.6V-773.657a25.366,25.366,0,0,1,7.738-18.6,25.366,25.366,0,0,1,18.6-7.738H317.084a25.366,25.366,0,0,1,18.6,7.738,25.366,25.366,0,0,1,7.738,18.6v57.3l-13.171,13.171-13.171,13.171v-57.3l-98.456,61.576q-.988.659-6.915,1.976a13.141,13.141,0,0,1-3.457-.494,13.7,13.7,0,0,1-3.457-1.482l-98.456-61.576V-615.6h67.832l26.343,26.343ZM211.713-668.287ZM211.713-707.8ZM211.713-683.1ZM263.74-599.8l65.2-65.2a12.489,12.489,0,0,1,9.22-3.622,12.489,12.489,0,0,1,9.22,3.622,12.489,12.489,0,0,1,3.622,9.22,12.489,12.489,0,0,1-3.622,9.22L272.96-572.136a12.636,12.636,0,0,1-9.22,3.951,12.636,12.636,0,0,1-9.22-3.951l-37.538-37.538a12.49,12.49,0,0,1-3.622-9.22,12.489,12.489,0,0,1,3.622-9.22,12.489,12.489,0,0,1,9.22-3.622,12.489,12.489,0,0,1,9.22,3.622Z" transform="translate(-80 800)" fill="url(#a)"/></svg>