<svg xmlns="http://www.w3.org/2000/svg" xmlns:xlink="http://www.w3.org/1999/xlink" width="22" height="22" viewBox="0 0 22 22"><defs><linearGradient id="a" y1="0.457" x2="1.067" y2="0.457" gradientUnits="objectBoundingBox"><stop offset="0" stop-color="#fb6580"/><stop offset="1" stop-color="#f32377"/></linearGradient><linearGradient id="b" x1="0" y1="0.447" x2="1" y2="0.456" xlink:href="#a"/></defs><path d="M8.967,20.5h3.615V12.912H15.84L16.2,9.141H12.583v-1.9a.926.926,0,0,1,.9-.947H16.2V2.5H13.487A4.632,4.632,0,0,0,8.967,7.237v1.9H7.16L6.8,12.912H8.967Z" transform="translate(-0.802 1.5)" fill="url(#a)"/><path d="M5,1A4,4,0,0,0,1,5V19a4,4,0,0,0,4,4H19a4,4,0,0,0,4-4V5a4,4,0,0,0-4-4ZM19,3H5A2,2,0,0,0,3,5V19a2,2,0,0,0,2,2H19a2,2,0,0,0,2-2V5A2,2,0,0,0,19,3Z" transform="translate(-1 -1)" fill-rule="evenodd" fill="url(#b)"/></svg>