<svg xmlns="http://www.w3.org/2000/svg" xmlns:xlink="http://www.w3.org/1999/xlink" width="7.765" height="12" viewBox="0 0 7.765 12"><defs><linearGradient id="a" x1="0.5" x2="0.5" y2="1" gradientUnits="objectBoundingBox"><stop offset="0" stop-color="#fb6580"/><stop offset="1" stop-color="#f32377"/></linearGradient></defs><path d="M263.176-788v-1.412h-1.412v-1.412h1.412v-1.482a3.7,3.7,0,0,1-2.285-1.332,3.846,3.846,0,0,1-.891-2.515,3.682,3.682,0,0,1,1.138-2.727A3.77,3.77,0,0,1,263.882-800a3.77,3.77,0,0,1,2.744,1.121,3.682,3.682,0,0,1,1.138,2.727,3.846,3.846,0,0,1-.891,2.515,3.7,3.7,0,0,1-2.285,1.332v1.482H266v1.412h-1.412V-788Zm.706-5.647a2.38,2.38,0,0,0,1.747-.724,2.38,2.38,0,0,0,.724-1.747,2.38,2.38,0,0,0-.724-1.747,2.38,2.38,0,0,0-1.747-.724,2.38,2.38,0,0,0-1.747.724,2.38,2.38,0,0,0-.724,1.747,2.38,2.38,0,0,0,.724,1.747A2.38,2.38,0,0,0,263.882-793.647Z" transform="translate(-260 800)" fill="url(#a)"/></svg>