<svg xmlns="http://www.w3.org/2000/svg" width="25.969" height="26.663" viewBox="0 0 25.969 26.663"><g transform="translate(1.277 1.359)"><path d="M12.32,1.158,1.138,12.278a.489.489,0,0,0,.379.832h.669a.507.507,0,0,1,.522.493V24.565a.507.507,0,0,0,.522.493h6.7a.507.507,0,0,0,.522-.493V19.386a.507.507,0,0,1,.522-.493h3.85a.507.507,0,0,1,.522.493v5.179a.507.507,0,0,0,.522.493h6.3a.507.507,0,0,0,.522-.493V13.608a.507.507,0,0,1,.522-.493h.673a.49.49,0,0,0,.379-.832L13.078,1.158a.547.547,0,0,0-.758,0Z" transform="translate(-0.992 -1.005)" fill="none" stroke="#fff" stroke-miterlimit="10" stroke-width="2.5"/></g></svg>