<svg xmlns="http://www.w3.org/2000/svg" width="25" height="25" viewBox="0 0 25 25"><g transform="translate(11.007 6.63)"><path d="M11,10.979c0-.552.683-1,1.525-1s1.525.448,1.525,1v6c0,.552-.683,1-1.525,1S11,17.532,11,16.979Z" transform="translate(-11 -5.833)" fill="#fff"/><path d="M12.525,6.051A1.525,1.525,0,1,0,14.05,7.576,1.525,1.525,0,0,0,12.525,6.051Z" transform="translate(-11 -6.051)" fill="#fff"/></g><path d="M14.5,2A12.5,12.5,0,1,0,27,14.5,12.5,12.5,0,0,0,14.5,2ZM4.5,14.5a10,10,0,1,0,10-10A10,10,0,0,0,4.5,14.5Z" transform="translate(-2 -2)" fill="#fff" fill-rule="evenodd"/></svg>