<svg xmlns="http://www.w3.org/2000/svg" xmlns:xlink="http://www.w3.org/1999/xlink" width="22" height="22" viewBox="0 0 22 22"><defs><linearGradient id="a" x1="-0.502" y1="0.415" x2="1.529" y2="0.425" gradientUnits="objectBoundingBox"><stop offset="0" stop-color="#fb6580"/><stop offset="1" stop-color="#f32377"/></linearGradient><linearGradient id="c" x1="0.173" y1="0.448" x2="1" y2="0.448" xlink:href="#a"/></defs><path d="M12,7a5,5,0,1,0,5,5A5,5,0,0,0,12,7ZM9,12a3,3,0,1,0,3-3A3,3,0,0,0,9,12Z" transform="translate(-1 -1)" fill-rule="evenodd" fill="url(#a)"/><path d="M18,5a1,1,0,1,0,1,1A1,1,0,0,0,18,5Z" transform="translate(-1 -1)" fill="url(#a)"/><path d="M5,1A4,4,0,0,0,1,5V19a4,4,0,0,0,4,4H19a4,4,0,0,0,4-4V5a4,4,0,0,0-4-4ZM19,3H5A2,2,0,0,0,3,5V19a2,2,0,0,0,2,2H19a2,2,0,0,0,2-2V5A2,2,0,0,0,19,3Z" transform="translate(-1 -1)" fill-rule="evenodd" fill="url(#c)"/></svg>