<svg width="23" height="18" viewBox="0 0 23 18" fill="none" xmlns="http://www.w3.org/2000/svg">
<path d="M14.6649 9.66394L14.06 8.86758L14.0462 8.87812L14.0327 8.88914L14.6649 9.66394ZM14.6649 8.53504L14.0132 9.29357L14.0575 9.33158L14.1058 9.36419L14.6649 8.53504ZM10.7868 5.20352L11.4385 4.44499L11.4107 4.4211L11.3812 4.3993L10.7868 5.20352ZM9.97384 5.70113L10.9738 5.69864L10.9738 5.69114L10.9737 5.68363L9.97384 5.70113ZM9.9901 12.2453L8.99011 12.2478L8.99017 12.2721L8.9914 12.2963L9.9901 12.2453ZM10.8329 12.7907L11.3753 13.6308L11.422 13.6006L11.4651 13.5655L10.8329 12.7907ZM11.5 15.875C9.69864 15.875 7.76959 15.8743 6.15434 15.7346C5.34671 15.6647 4.654 15.5628 4.11516 15.4213C3.54334 15.2711 3.28812 15.1118 3.20692 15.0276L1.76723 16.4159C2.24208 16.9083 2.94402 17.1815 3.60706 17.3557C4.30306 17.5385 5.12288 17.6528 5.982 17.7271C7.70026 17.8757 9.72164 17.875 11.5 17.875V15.875ZM0.375 9C0.375 10.8289 0.373023 12.2976 0.522309 13.4491C0.674856 14.6257 1.00099 15.6212 1.76723 16.4159L3.20692 15.0276C2.86109 14.669 2.63118 14.1598 2.50571 13.1919C2.37698 12.199 2.375 10.8834 2.375 9H0.375ZM20.625 9C20.625 10.8834 20.623 12.199 20.4943 13.1919C20.3688 14.1598 20.1389 14.669 19.7931 15.0276L21.2328 16.4159C21.999 15.6212 22.3251 14.6257 22.4777 13.4491C22.627 12.2976 22.625 10.8289 22.625 9H20.625ZM11.5 17.875C13.2784 17.875 15.2997 17.8757 17.018 17.7271C17.8771 17.6528 18.6969 17.5385 19.3929 17.3557C20.056 17.1815 20.7579 16.9083 21.2328 16.4159L19.7931 15.0276C19.7119 15.1118 19.4567 15.2711 18.8848 15.4213C18.346 15.5628 17.6533 15.6647 16.8457 15.7346C15.2304 15.8743 13.3014 15.875 11.5 15.875V17.875ZM11.5 2.125C13.3014 2.125 15.2304 2.12573 16.8457 2.26544C17.6533 2.33529 18.346 2.43719 18.8848 2.57873C19.4567 2.72892 19.7119 2.8882 19.7931 2.9724L21.2328 1.58413C20.7579 1.0917 20.056 0.818502 19.3929 0.644344C18.6969 0.461525 17.8771 0.347184 17.018 0.272878C15.2997 0.124265 13.2784 0.125 11.5 0.125V2.125ZM22.625 9C22.625 7.17113 22.627 5.70243 22.4777 4.55092C22.3251 3.37427 21.999 2.37876 21.2328 1.58413L19.7931 2.9724C20.1389 3.33104 20.3688 3.84024 20.4943 4.80806C20.623 5.80103 20.625 7.11656 20.625 9H22.625ZM11.5 0.125C9.72164 0.125 7.70026 0.124265 5.982 0.272878C5.12288 0.347184 4.30306 0.461525 3.60706 0.644344C2.94402 0.818502 2.24208 1.0917 1.76723 1.58413L3.20692 2.9724C3.28812 2.8882 3.54334 2.72892 4.11516 2.57873C4.654 2.43719 5.34671 2.33529 6.15434 2.26544C7.76959 2.12573 9.69864 2.125 11.5 2.125V0.125ZM2.375 9C2.375 7.11656 2.37698 5.80103 2.50571 4.80806C2.63118 3.84024 2.86109 3.33104 3.20692 2.9724L1.76723 1.58413C1.00099 2.37876 0.674856 3.37427 0.522309 4.55092C0.373023 5.70243 0.375 7.17113 0.375 9H2.375ZM15.2697 10.4603C15.6289 10.1875 16.0369 9.72861 16.0361 9.08201C16.0354 8.41649 15.6054 7.96312 15.2239 7.7059L14.1058 9.36419C14.1536 9.39636 14.1417 9.39928 14.1133 9.35719C14.08 9.30769 14.0363 9.21221 14.0361 9.08435C14.036 8.95905 14.0778 8.87354 14.0992 8.83968C14.1173 8.81116 14.1169 8.82439 14.06 8.86758L15.2697 10.4603ZM15.3165 7.77651L11.4385 4.44499L10.1352 5.96205L14.0132 9.29357L15.3165 7.77651ZM11.3812 4.3993C10.9945 4.11355 10.3629 3.89499 9.74717 4.2304C9.1335 4.56469 8.9652 5.21597 8.974 5.71862L10.9737 5.68363C10.9716 5.56666 11.0089 5.8206 10.7039 5.98672C10.563 6.06349 10.4236 6.07145 10.3273 6.0557C10.2373 6.04098 10.1937 6.00859 10.1925 6.00773L11.3812 4.3993ZM8.97385 5.70361L8.99011 12.2478L10.9901 12.2429L10.9738 5.69864L8.97385 5.70361ZM8.9914 12.2963C9.01215 12.7028 9.1278 13.3697 9.715 13.7356C10.3687 14.1429 11.0348 13.8507 11.3753 13.6308L10.2905 11.9506C10.2426 11.9815 10.2625 11.9571 10.3432 11.9441C10.4406 11.9283 10.6068 11.9348 10.7727 12.0381C10.9273 12.1344 10.9841 12.2544 10.9964 12.2849C11.0074 12.3124 10.9938 12.2922 10.9888 12.1944L8.9914 12.2963ZM11.4651 13.5655L15.2971 10.4387L14.0327 8.88914L10.2007 12.0159L11.4651 13.5655Z" fill="#FB6580"/>
</svg>
