<svg xmlns="http://www.w3.org/2000/svg" width="17.951" height="20.548" viewBox="0 0 17.951 20.548"><path d="M13,4.009a1,1,0,1,0-2,0l0,8a1,1,0,1,0,2,0Z" transform="translate(-3.024 -3.009)" fill="#fff"/><path d="M4,14.054A9.76,9.76,0,0,1,6.629,7.335l1.587,1.68a7.32,7.32,0,0,0-1.972,5.039,6.938,6.938,0,0,0,6.732,7.127,6.938,6.938,0,0,0,6.732-7.127,7.32,7.32,0,0,0-1.972-5.04l1.587-1.68a9.759,9.759,0,0,1,2.629,6.719,9.25,9.25,0,0,1-8.976,9.5A9.25,9.25,0,0,1,4,14.054Z" transform="translate(-4 -3.009)" fill="#fff"/></svg>