<svg xmlns="http://www.w3.org/2000/svg" width="24" height="24" viewBox="0 0 24 24"><path d="M15,12a3,3,0,1,1-3-3A3,3,0,0,1,15,12Zm-2,0a1,1,0,1,1-1-1A1,1,0,0,1,13,12Z" fill="#fff" fill-rule="evenodd"/><path d="M13,21a8,8,0,1,0-8-8A8,8,0,0,0,13,21Zm0-2.286A5.714,5.714,0,1,0,7.286,13,5.714,5.714,0,0,0,13,18.714Z" transform="translate(-1 -1)" fill="#fff" fill-rule="evenodd"/><path d="M13,25A12,12,0,1,0,1,13,12,12,0,0,0,13,25Zm0-2.182A9.818,9.818,0,1,0,3.182,13,9.818,9.818,0,0,0,13,22.818Z" transform="translate(-1 -1)" fill="#fff" fill-rule="evenodd"/></svg>