<svg xmlns="http://www.w3.org/2000/svg" width="7.351" height="26.953" viewBox="0 0 7.351 26.953"><path d="M12.675,5.9A1.225,1.225,0,1,0,11.45,4.675,1.225,1.225,0,0,0,12.675,5.9Zm0,9.8a1.225,1.225,0,1,0-1.225-1.225A1.225,1.225,0,0,0,12.675,15.7Zm0,9.8a1.225,1.225,0,1,0-1.225-1.225A1.225,1.225,0,0,0,12.675,25.5ZM16.351,4.675A3.675,3.675,0,1,1,12.675,1,3.675,3.675,0,0,1,16.351,4.675Zm0,9.8A3.675,3.675,0,1,1,12.675,10.8,3.675,3.675,0,0,1,16.351,14.477ZM12.675,27.953A3.675,3.675,0,1,0,9,24.278,3.675,3.675,0,0,0,12.675,27.953Z" transform="translate(-9 -1)" fill="#fff" fill-rule="evenodd"/></svg>