<svg width="23" height="22" viewBox="0 0 23 22" fill="none" xmlns="http://www.w3.org/2000/svg">
<path d="M9.08596 15.8179C8.79218 15.1781 7.58889 14.244 7.28948 14.1092C6.60453 13.7264 5.80825 13.573 5.0241 13.6729C4.23996 13.7729 3.51179 14.1205 2.9525 14.6618C2.39322 15.2032 2.03408 15.9081 1.93078 16.6672C1.82748 17.4264 1.98579 18.1973 2.38117 18.8604C2.77654 19.5235 3.38688 20.0418 4.11754 20.3349C4.8482 20.628 5.65834 20.6796 6.42233 20.4815C7.18632 20.2835 7.86147 19.8469 8.34306 19.2396C8.82466 18.6322 9.08579 17.888 9.08597 17.1223V4.91005C9.08597 4.44257 9.40986 4.03746 9.86588 3.93457L21.1 1.3999L21.0999 14.6399M21.0999 14.6399L21.1 15.9445C21.0998 16.7102 20.8387 17.4544 20.3571 18.0618C19.8755 18.6691 19.2003 19.1057 18.4364 19.3037C17.6724 19.5018 16.8622 19.4502 16.1316 19.1571C15.4009 18.864 14.7906 18.3457 14.3952 17.6826C13.9998 17.0194 13.8415 16.2485 13.9448 15.4894C14.0481 14.7303 14.4072 14.0254 14.9665 13.484C15.5258 12.9426 16.254 12.595 17.0381 12.4951C17.8223 12.3952 18.6186 12.5486 19.3035 12.9314C19.6029 13.0662 20.8059 14.0001 21.0999 14.6399Z" stroke="#F32377" stroke-width="2" stroke-linecap="round" stroke-linejoin="round"/>
</svg>
