<svg xmlns="http://www.w3.org/2000/svg" width="32.855" height="33.683" viewBox="0 0 32.855 33.683"><path d="M34.855,8.572a6.571,6.571,0,0,0-7.57-6.495l-11.5,1.769a6.571,6.571,0,0,0-5.572,6.495v14.4a5.751,5.751,0,1,0,3.286,5.2V10.342a3.286,3.286,0,0,1,2.786-3.247l11.5-1.769A3.286,3.286,0,0,1,31.57,8.572V19.809a5.751,5.751,0,1,0,3.286,5.2ZM31.57,25.005a2.464,2.464,0,1,0-2.464,2.464A2.464,2.464,0,0,0,31.57,25.005ZM10.214,29.933A2.464,2.464,0,1,0,7.75,32.4,2.464,2.464,0,0,0,10.214,29.933Z" transform="translate(-2 -2)" fill="#f2f2f2" fill-rule="evenodd"/><ellipse cx="3.763" cy="3.763" rx="3.763" ry="3.763" transform="translate(1.505 25.399)" fill="#f2f2f2"/><ellipse cx="3.763" cy="3.763" rx="3.763" ry="3.763" transform="translate(23.825 18.559)" fill="#f2f2f2"/></svg>