<svg xmlns="http://www.w3.org/2000/svg" width="25.84" height="25" viewBox="0 0 25.84 25"><g transform="translate(-177.16 -947)"><path d="M29.9,13.342,17.163,19.664m-3.282,6.866-2.453,1.218m.441-5.271L7,24.894m2.859-6.472L7.4,19.639M12.4,12.73l16.572-.154a1.222,1.222,0,0,1,.978,1.97L19.805,27.652a1.222,1.222,0,0,1-2.187-.689l-.33-6.815a1.222,1.222,0,0,0-.435-.877l-5.229-4.383A1.222,1.222,0,0,1,12.4,12.73Z" transform="translate(171.502 938.924)" fill="none" stroke="#fb6580" stroke-linecap="round" stroke-width="2"/><rect width="25" height="25" transform="translate(178 947)" fill="none"/></g></svg>