<svg xmlns="http://www.w3.org/2000/svg" xmlns:xlink="http://www.w3.org/1999/xlink" width="22" height="22" viewBox="0 0 22 22"><defs><linearGradient id="a" y1="0.447" x2="1" y2="0.456" gradientUnits="objectBoundingBox"><stop offset="0" stop-color="#fb6580"/><stop offset="1" stop-color="#f32377"/></linearGradient></defs><path d="M5,1A4,4,0,0,0,1,5V19a4,4,0,0,0,4,4H19a4,4,0,0,0,4-4V5a4,4,0,0,0-4-4ZM19,3H5A2,2,0,0,0,3,5V19a2,2,0,0,0,2,2H19a2,2,0,0,0,2-2V5A2,2,0,0,0,19,3Z" transform="translate(-1 -1)" fill-rule="evenodd" fill="url(#a)"/><g transform="translate(4.303 462.881)"><path d="M.229-458.174c-.005.008.429.6.963,1.315l2.522,3.373,1.551,2.074-.1.113-2.533,2.737C1.3-447.117.2-445.926.2-445.912a2.912,2.912,0,0,0,.563.021l.571,0,.188-.207,2.16-2.334c1.084-1.172,2-2.165,2.039-2.208l.067-.078.537.719,1.806,2.417,1.272,1.7h1.945a12.715,12.715,0,0,0,1.932-.035c-.008-.021-.5-.687-1.1-1.484s-1.277-1.706-1.513-2.023-.939-1.258-1.562-2.087-1.132-1.524-1.132-1.535,3.289-3.59,4.408-4.784l.319-.341h-.588l-.585,0-.684.741c-.376.408-1.3,1.406-2.047,2.214l-1.36,1.47-1.65-2.205-1.653-2.208-1.945-.013C1.117-458.184.234-458.182.229-458.174ZM4.838-455.8c.636.853,1.618,2.165,2.181,2.919s1.814,2.425,2.78,3.716l1.779,2.383a3.146,3.146,0,0,1-.869.032H9.821L8.061-449.1q-6.093-8.142-6.136-8.21c-.016-.024.166-.032.867-.032h.888Z" transform="translate(0)" fill="#fb6580"/></g></svg>