<svg xmlns="http://www.w3.org/2000/svg" xmlns:xlink="http://www.w3.org/1999/xlink" width="18" height="18" viewBox="0 0 18 18"><defs><linearGradient id="a" y1="0.5" x2="1" y2="0.5" gradientUnits="objectBoundingBox"><stop offset="0" stop-color="#04eefe"/><stop offset="1" stop-color="#4eadfe"/></linearGradient></defs><path d="M10.148,1.557a2.221,2.221,0,0,1,3.3,1.368h0a2.221,2.221,0,0,0,1.623,1.623h0a2.221,2.221,0,0,1,1.368,3.3h0a2.221,2.221,0,0,0,0,2.3h0a2.221,2.221,0,0,1-1.368,3.3h0a2.221,2.221,0,0,0-1.623,1.623h0a2.221,2.221,0,0,1-3.3,1.368h0a2.221,2.221,0,0,0-2.3,0h0a2.221,2.221,0,0,1-3.3-1.368h0a2.221,2.221,0,0,0-1.623-1.623h0a2.221,2.221,0,0,1-1.368-3.3h0a2.221,2.221,0,0,0,0-2.3h0a2.221,2.221,0,0,1,1.368-3.3h0A2.221,2.221,0,0,0,4.549,2.926h0a2.221,2.221,0,0,1,3.3-1.368h0a2.221,2.221,0,0,0,2.3,0Z" fill="url(#a)"/><path d="M3.123,11.319.135,8.331a.46.46,0,0,1,0-.65L.93,6.929a.46.46,0,0,1,.65,0L3.469,8.823,7.635,4.614a.46.46,0,0,1,.65,0l.774.769a.46.46,0,0,1,0,.65L3.773,11.319A.46.46,0,0,1,3.123,11.319Z" transform="translate(4.324 1.121)" fill="#fff"/></svg>