<svg xmlns="http://www.w3.org/2000/svg" width="27.5" height="25" viewBox="0 0 27.5 25"><path d="M24.963,3l0,.006A3.75,3.75,0,0,1,28.5,6.75v17.5A3.75,3.75,0,0,1,24.75,28h-20A3.75,3.75,0,0,1,1,24.25V6.75A3.75,3.75,0,0,1,4.75,3ZM12.845,5.5h7.5l-4.234,5h-7.5Zm-6.734,5,4.234-5H4.75A1.25,1.25,0,0,0,3.5,6.75V10.5ZM3.5,13V24.25A1.25,1.25,0,0,0,4.75,25.5h20A1.25,1.25,0,0,0,26,24.25V13ZM26,10.5V6.75A1.25,1.25,0,0,0,24.75,5.5h-1.9l-4.234,5Z" transform="translate(-1 -3)" fill="#fff" fill-rule="evenodd"/><path d="M2.572,1.085a.8.8,0,0,1,1.357,0L5.735,3.976A.8.8,0,0,1,5.057,5.2H1.443A.8.8,0,0,1,.765,3.976Z" transform="translate(17.146 13.019) rotate(90)" fill="#fff"/></svg>