<svg xmlns="http://www.w3.org/2000/svg" width="25.827" height="20" viewBox="0 0 25.827 20"><path d="M18,13a5,5,0,1,1-5-5A5,5,0,0,1,18,13Zm-2.5,0A2.5,2.5,0,1,1,13,10.5,2.5,2.5,0,0,1,15.5,13Z" transform="translate(-0.087 -3)" fill="#f2f2f2" fill-rule="evenodd"/><path d="M13.291,3A13.339,13.339,0,0,1,26.2,13,13.338,13.338,0,0,1,.378,13,13.339,13.339,0,0,1,13.291,3Zm0,17.778A11.117,11.117,0,0,1,2.688,13a11.116,11.116,0,0,1,21.206,0A11.117,11.117,0,0,1,13.291,20.778Z" transform="translate(-0.378 -3)" fill="#f2f2f2" fill-rule="evenodd"/></svg>