<svg xmlns="http://www.w3.org/2000/svg" xmlns:xlink="http://www.w3.org/1999/xlink" width="22" height="22" viewBox="0 0 22 22"><defs><linearGradient id="a" x1="-0.627" y1="0.923" x2="1" y2="1" gradientUnits="objectBoundingBox"><stop offset="0" stop-color="#fb6580"/><stop offset="1" stop-color="#f32377"/></linearGradient><linearGradient id="d" x1="0" y1="0.447" x2="1" y2="0.456" xlink:href="#a"/></defs><path d="M14.828,12l1.414,1.414,2.828-2.828a4,4,0,0,0-5.657-5.657L10.586,7.757,12,9.172l2.828-2.828a2,2,0,0,1,2.828,2.828Z" transform="translate(-2)" fill="url(#a)"/><path d="M12,14.828l1.414,1.414-2.828,2.828a4,4,0,0,1-5.657-5.657l2.828-2.828L9.172,12,6.343,14.828a2,2,0,0,0,2.828,2.828Z" transform="translate(0 -2)" fill="url(#a)"/><path d="M14.828,10.586a1,1,0,1,0-1.414-1.414L9.172,13.414a1,1,0,0,0,1.414,1.414Z" transform="translate(-1 -1)" fill="url(#a)"/><path d="M5,1A4,4,0,0,0,1,5V19a4,4,0,0,0,4,4H19a4,4,0,0,0,4-4V5a4,4,0,0,0-4-4ZM19,3H5A2,2,0,0,0,3,5V19a2,2,0,0,0,2,2H19a2,2,0,0,0,2-2V5A2,2,0,0,0,19,3Z" transform="translate(-1 -1)" fill-rule="evenodd" fill="url(#d)"/></svg>