<svg xmlns="http://www.w3.org/2000/svg" width="50" height="50" viewBox="0 0 50 50"><rect width="50" height="50" rx="4" fill="#06df96"/><path d="M22.956,6.173A13.384,13.384,0,0,0,1.9,22.319L0,29.25l7.094-1.862a13.339,13.339,0,0,0,6.394,1.627h.006A13.508,13.508,0,0,0,27,15.635a13.432,13.432,0,0,0-4.044-9.462ZM13.494,26.761a11.1,11.1,0,0,1-5.665-1.549l-.4-.241-4.207,1.1,1.121-4.1-.265-.422A11.142,11.142,0,1,1,24.74,15.635,11.245,11.245,0,0,1,13.494,26.761Zm6.1-8.329c-.331-.169-1.977-.976-2.284-1.085s-.53-.169-.753.169-.862,1.085-1.061,1.314-.392.253-.723.084a9.1,9.1,0,0,1-4.55-3.978c-.344-.591.344-.548.982-1.826a.62.62,0,0,0-.03-.585c-.084-.169-.753-1.814-1.031-2.483-.271-.651-.548-.56-.753-.573s-.416-.012-.639-.012a1.238,1.238,0,0,0-.892.416,3.757,3.757,0,0,0-1.169,2.79,6.549,6.549,0,0,0,1.362,3.459,14.939,14.939,0,0,0,5.713,5.05c2.121.916,2.953.994,4.014.838a3.424,3.424,0,0,0,2.254-1.591,2.8,2.8,0,0,0,.193-1.591C20.148,18.679,19.925,18.595,19.593,18.432Z" transform="translate(12 9.25)" fill="#fff" stroke="#fff" stroke-width="0.5"/></svg>