<svg xmlns="http://www.w3.org/2000/svg" xmlns:xlink="http://www.w3.org/1999/xlink" width="22" height="22" viewBox="0 0 22 22"><defs><linearGradient id="a" x1="-0.502" y1="0.415" x2="1.529" y2="0.425" gradientUnits="objectBoundingBox"><stop offset="0" stop-color="#fa5d7f"/><stop offset="1" stop-color="#f22076"/></linearGradient><linearGradient id="b" x1="-0.502" y1="0.415" x2="1.529" y2="0.425" gradientUnits="objectBoundingBox"><stop offset="0" stop-color="#fb6580"/><stop offset="1" stop-color="#f32377"/></linearGradient><linearGradient id="c" x1="0" y1="0.447" x2="1" y2="0.456" xlink:href="#b"/></defs><g transform="translate(5 7)"><path d="M3.8,6.143h8.4a.586.586,0,0,1,.6.571v4.571a.586.586,0,0,1-.6.571H3.8a.586.586,0,0,1-.6-.571V6.714A.586.586,0,0,1,3.8,6.143ZM2,6.714A1.759,1.759,0,0,1,3.8,5h8.4A1.759,1.759,0,0,1,14,6.714v4.571A1.759,1.759,0,0,1,12.2,13H3.8A1.759,1.759,0,0,1,2,11.286Zm4.8.571L9.2,9,6.8,10.714Z" transform="translate(-2 -5)" fill-rule="evenodd" fill="url(#a)"/><rect width="10" height="6" transform="translate(1 1)" fill="url(#b)"/><path d="M6.8,7.286l3.5,2.5-3.5,2.5Z" transform="translate(-2.551 -5.787)" fill="#fff" fill-rule="evenodd"/></g><path d="M5,1A4,4,0,0,0,1,5V19a4,4,0,0,0,4,4H19a4,4,0,0,0,4-4V5a4,4,0,0,0-4-4ZM19,3H5A2,2,0,0,0,3,5V19a2,2,0,0,0,2,2H19a2,2,0,0,0,2-2V5A2,2,0,0,0,19,3Z" transform="translate(-1 -1)" fill-rule="evenodd" fill="url(#c)"/></svg>