<svg xmlns="http://www.w3.org/2000/svg" width="24.15" height="21.157" viewBox="0 0 24.15 21.157"><g transform="translate(0.1 0.1)"><path d="M15.988,11H10v2.994h5.988Z" transform="translate(-1.019 -2.987)" fill="#9a9a9a" stroke="#9a9a9a" stroke-width="0.2"/><path d="M7.532,5.309v-1.1A2.192,2.192,0,0,1,9.709,2h6.532a2.192,2.192,0,0,1,2.177,2.206v1.1h3.266A3.288,3.288,0,0,1,24.95,8.618v11.03a3.288,3.288,0,0,1-3.266,3.309H4.266A3.288,3.288,0,0,1,1,19.648V8.618A3.288,3.288,0,0,1,4.266,5.309Zm2.177-1.1h6.532v1.1H9.709ZM4.266,7.515a1.1,1.1,0,0,0-1.089,1.1v6.618h19.6V8.618a1.1,1.1,0,0,0-1.089-1.1ZM3.177,19.648V17.442h19.6v2.206a1.1,1.1,0,0,1-1.089,1.1H4.266A1.1,1.1,0,0,1,3.177,19.648Z" transform="translate(-1 -2)" fill="#9a9a9a" stroke="#9a9a9a" stroke-width="0.2" fill-rule="evenodd"/></g></svg>