<svg xmlns="http://www.w3.org/2000/svg" width="28.022" height="28.022" viewBox="0 0 28.022 28.022"><path d="M14.275,19.9l7.406-4.275L14.275,11.35v2.63h-6.5v3.291h6.5Z" transform="translate(-0.717 1.348)" fill="#9a9a9a"/><path d="M8.486,7A1.572,1.572,0,0,0,7,8.646a1.572,1.572,0,0,0,1.486,1.646H20.371a1.572,1.572,0,0,0,1.486-1.646A1.572,1.572,0,0,0,20.371,7Z" transform="translate(-0.417 -0.817)" fill="#9a9a9a"/><path d="M7.67,3A4.67,4.67,0,0,0,3,7.67V26.352a4.67,4.67,0,0,0,4.67,4.67H26.352a4.67,4.67,0,0,0,4.67-4.67V7.67A4.67,4.67,0,0,0,26.352,3ZM26.352,6.114H7.67A1.557,1.557,0,0,0,6.114,7.67V26.352A1.557,1.557,0,0,0,7.67,27.909H26.352a1.557,1.557,0,0,0,1.557-1.557V7.67A1.557,1.557,0,0,0,26.352,6.114Z" transform="translate(-3 -3)" fill="#9a9a9a" fill-rule="evenodd"/></svg>