<svg xmlns="http://www.w3.org/2000/svg" width="19.446" height="22.654" viewBox="0 0 19.446 22.654"><g transform="translate(0.1 0.1)"><path d="M19.038,11.123a3.208,3.208,0,0,1,3.208,3.208v6.415a3.208,3.208,0,0,1-3.208,3.208H6.208A3.208,3.208,0,0,1,3,20.746V14.331a3.208,3.208,0,0,1,3.208-3.208V7.915a6.415,6.415,0,1,1,12.831,0ZM12.623,3.638A4.277,4.277,0,0,1,16.9,7.915v3.208H8.346V7.915A4.277,4.277,0,0,1,12.623,3.638Zm6.415,9.623H6.208a1.069,1.069,0,0,0-1.069,1.069v6.415a1.069,1.069,0,0,0,1.069,1.069H19.038a1.069,1.069,0,0,0,1.069-1.069V14.331A1.069,1.069,0,0,0,19.038,13.261Z" transform="translate(-3 -1.5)" fill="#9a9a9a" stroke="#9a9a9a" stroke-width="0.2" fill-rule="evenodd"/></g></svg>