<svg xmlns="http://www.w3.org/2000/svg" width="23.578" height="23.579" viewBox="0 0 23.578 23.579"><path d="M23.167,20.065l-8.575-7.294.665-.667a3.05,3.05,0,0,0,.883-1.969c.026-.012.052-.024.077-.038L18.9,8.42a1.129,1.129,0,0,0-.059-1.5L14.176,2.244a1.121,1.121,0,0,0-1.494-.059l-1.673,2.69c-.014.025-.026.051-.038.077a3.034,3.034,0,0,0-1.964.886L6.47,8.382a3.05,3.05,0,0,0-.883,1.969c-.026.012-.052.024-.077.038L2.827,12.067a1.128,1.128,0,0,0,.059,1.5l4.666,4.678a1.121,1.121,0,0,0,1.494.06l1.673-2.69c.014-.025.026-.051.038-.077a3.034,3.034,0,0,0,1.964-.886l.737-.739,7.259,8.613A.9.9,0,0,0,22,22.672l1.312-1.315a.9.9,0,0,0-.149-1.292Z" transform="translate(-1.201 -0.558)" fill="none" stroke="#9a9a9a" stroke-width="2.5"/></svg>