<svg xmlns="http://www.w3.org/2000/svg" width="26.168" height="23.21" viewBox="0 0 26.168 23.21"><g transform="translate(1.25 1.25)"><path d="M21.32,7.688H5.7a.74.74,0,0,1,0-1.479H21.449c.409,0,.74-1.331.74-1.74A2.219,2.219,0,0,0,19.97,2.25H2.959A2.958,2.958,0,0,0,0,5.209V20A2.958,2.958,0,0,0,2.959,22.96H21.32a2.289,2.289,0,0,0,2.348-2.219V9.907A2.289,2.289,0,0,0,21.32,7.688ZM17.23,16.3a1.479,1.479,0,1,1,1.479-1.479A1.479,1.479,0,0,1,17.23,16.3Z" transform="translate(0 -2.25)" fill="none" stroke="#9a9a9a" stroke-width="2.5"/></g></svg>